<svg width="48" height="43" viewBox="0 0 48 43" fill="none" xmlns="http://www.w3.org/2000/svg">
<path fill-rule="evenodd" clip-rule="evenodd" d="M22.0348 5.27812L9.32633 12.4217L9.48382 26.9994L22.0348 5.27812ZM7.8839 11.5883C7.78379 11.7615 7.78608 11.9735 7.79066 12.3974L7.94816 26.9751C7.97275 29.2519 7.98505 30.3904 8.55662 30.5491C9.12819 30.7078 9.69334 29.7298 10.8236 27.7736L23.3746 6.05229C24.5049 4.09614 25.07 3.11806 24.6471 2.70214C24.2241 2.28622 23.2316 2.84409 21.2467 3.95983L8.53832 11.1034C8.16877 11.3111 7.984 11.415 7.8839 11.5883Z" fill="black"/>
<path fill-rule="evenodd" clip-rule="evenodd" d="M38.586 27.0203L38.6744 12.6964L26.4184 5.2821L38.586 27.0203ZM40.0404 11.9318C39.9409 11.754 39.7588 11.6439 39.3948 11.4237L27.1387 4.00937C25.2552 2.86995 24.3135 2.30024 23.9203 2.69254C23.5271 3.08484 24.0692 4.05329 25.1533 5.99019L37.321 27.7284C38.4051 29.6653 38.9472 30.6337 39.4872 30.5037C40.0272 30.3736 40.034 29.273 40.0476 27.0717L40.1359 12.7478C40.1386 12.3223 40.1399 12.1095 40.0404 11.9318Z" fill="black"/>
<path fill-rule="evenodd" clip-rule="evenodd" d="M11.6381 30.8983L24.0129 38.3027L36.3877 30.8983L11.6381 30.8983ZM24.0129 39.9191C24.2192 39.9191 24.4059 39.8073 24.7794 39.5838L37.1543 32.1794C39.0247 31.0602 39.9599 30.5007 39.8086 29.953C39.6573 29.4054 38.5674 29.4054 36.3877 29.4054H11.6381C9.45837 29.4054 8.36852 29.4054 8.21719 29.953C8.06586 30.5007 9.00108 31.0602 10.8715 32.1794L23.2464 39.5838C23.6199 39.8073 23.8066 39.9191 24.0129 39.9191Z" fill="black"/>
<path fill-rule="evenodd" clip-rule="evenodd" d="M18.0093 17.2226L24.0575 28.1698L30.3227 17.3453L18.0093 17.2226ZM24.0346 30.4731C24.4925 30.4777 24.7969 29.9518 25.4057 28.8999L31.6708 18.0754C32.2381 17.0954 32.5217 16.6054 32.3009 16.2372C32.0802 15.869 31.4993 15.8632 30.3376 15.8517L18.0242 15.729C16.8625 15.7174 16.2816 15.7116 16.0536 16.0753C15.8255 16.439 16.0993 16.9345 16.6469 17.9257L22.6951 28.8729C23.2828 29.9367 23.5766 30.4685 24.0346 30.4731Z" fill="black"/>
<path fill-rule="evenodd" clip-rule="evenodd" d="M16.9215 17.6485L8.71037 13.1697L9.42526 11.8591L17.6364 16.3379L16.9215 17.6485Z" fill="black"/>
<path fill-rule="evenodd" clip-rule="evenodd" d="M39.3154 13.1697L31.1043 17.6485L30.3894 16.3379L38.6005 11.8591L39.3154 13.1697Z" fill="black"/>
<path fill-rule="evenodd" clip-rule="evenodd" d="M24.789 30.0752V39.0328H23.296L23.296 30.0752H24.789Z" fill="black"/>
</svg>
